<mxfile host="app.diagrams.net" modified="2023-10-14T06:46:32.987Z" agent="Mozilla/5.0 (Macintosh; Intel Mac OS X 10_15_7) AppleWebKit/537.36 (KHTML, like Gecko) Chrome/117.0.0.0 Safari/537.36" version="21.7.5" etag="vXPUstat_ybuqsr-UVOt" type="github">
  <diagram name="페이지-1" id="nqEqTA9ZON_FwcqGclJj">
    <mxGraphModel>
      <root>
        <mxCell id="0" />
        <mxCell id="1" parent="0" />
      </root>
    </mxGraphModel>
  </diagram>
</mxfile>
